<?xml version="1.0" encoding="UTF-8"?>
<svg id="_8-logos" data-name="8-logos" xmlns="http://www.w3.org/2000/svg" viewBox="0 0 145.4 83.42">
  <defs>
    <style>
      .cls-1 {
        fill: #c9c9c9;
      }
    </style>
  </defs>
  <path class="cls-1" d="M125.45,54.74c-.78,.69-1.5,1.46-2.35,2.06-7.44,5.23-15.67,8.8-24.32,11.43-13.09,3.98-26.48,5.76-40.15,5.23-9.99-.38-19.77-1.96-29.02-5.97-3.69-1.6-7.12-3.63-10.13-6.33-7.41-6.65-8.67-15.52-3.36-23.97,3.15-5.02,7.51-8.83,12.38-12.09,8.78-5.88,18.48-9.62,28.66-12.19,13.44-3.39,27.08-4.65,40.9-3.31,8.5,.83,16.79,2.6,24.55,6.34,3.92,1.89,7.5,4.26,10.39,7.56,5.21,5.94,6.08,13.17,2.42,20.18-2.27,4.34-5.56,7.82-9.35,10.86-.18,.14-.45,.17-.68,.26-.66-.62-.69-1.3-.48-2.19,1.27-5.34,2.48-10.7,3.65-16.07,.51-2.35-.85-4.12-3.23-4.24-1.68-.09-3.37,0-5.06-.03-.89,0-1.57,.31-2.03,1.1-.18,.31-.43,.58-.92,1.22,.54-2.35,.96-4.24,1.39-6.12,.18-.77,.11-1.44-.88-1.46-1.79-.04-3.58-.01-5.25-.01-.09,.85-.09,1.48-.22,2.07-.87,3.96-1.78,7.92-2.65,11.88-.88,3.96-1.75,7.92-2.6,11.89-.28,1.33,.04,1.92,1.2,1.98,1.57,.09,3.16,.02,4.61,.02-.09-.82-.32-1.44-.19-1.98,1.15-4.73,2.37-9.44,3.55-14.17,.28-1.15,1.01-1.68,2.12-1.77,.62-.05,1.25-.06,1.87-.04,1.32,.06,1.83,.49,1.85,1.82,.01,.86-.17,1.73-.36,2.58-.89,3.89-1.83,7.78-2.72,11.67-.36,1.59-.12,1.89,1.53,1.89,1.62,0,3.24-.07,4.87-.11Zm-80.83-4.86c-.2-.06-.38-.16-.55-.15-1.77,.1-1.93,.05-2.39-2.06-.59-2.74-1.04-5.54-1.93-8.19-.85-2.51-.38-4.14,1.84-5.63,1.96-1.31,3.68-2.99,5.41-4.61,.42-.39,.69-1.21,.6-1.76-.05-.32-.94-.71-1.47-.73-1.86-.09-3.74-.03-5.35-.03-.21,.81-.16,1.68-.57,2.05-2.36,2.19-4.83,4.27-7.55,6.65,.55-2.45,1.04-4.5,1.47-6.57,.32-1.54-.11-2.09-1.69-2.13-1.73-.04-3.45,0-4.94,0-.06,1.03,.02,1.86-.16,2.64-1.26,5.41-2.58,10.8-3.88,16.2-.57,2.36-1.17,4.72-1.7,7.1-.28,1.27,.03,1.92,1.03,1.96,2.07,.1,4.15,.03,6.22,.03,.05-.12,.1-.23,.14-.35-1.05-.57-.96-1.34-.7-2.27,.6-2.16,1.27-4.33,1.58-6.54,.32-2.21,1.7-3.31,3.51-4.33,.17,.62,.34,1.14,.46,1.67,.77,3.22,1.51,6.44,2.29,9.65,.43,1.77,.75,2.01,2.56,2.07,.31,0,.62,0,.94,0q4.37,0,4.93-4.31c0-.05-.04-.11-.13-.34Zm19.88,4.79c-1.33-1.36-1.03-2.56-.76-3.8,1.01-4.51,2-9.02,2.95-13.54,.72-3.39-.58-5.05-4-5.1-3.19-.05-6.38-.02-9.56,0-.41,0-.82,.14-1.22,.21-.08,.42-.15,.72-.2,1.02-.47,2.69-.27,2.92,2.45,2.93,1.69,0,3.38-.04,5.06,.02,1.17,.04,1.66,.81,1.38,1.88-.24,.9-.94,.88-1.63,.89-2.25,.01-4.5-.02-6.75,.03-1.34,.03-2.75,.29-3.48,1.51-2.06,3.46-3.18,7.19-2.63,11.26,.2,1.44,1.13,2.36,2.61,2.54,1.05,.12,2.13,.02,3.18,.16,2.39,.31,3.99-.6,4.81-2.87,.1-.27,.32-.49,.71-1.07-.22,.98-.37,1.57-.48,2.17-.25,1.38-.02,1.7,1.38,1.74,1.87,.05,3.74,.01,6.18,.01Zm25.75-22.34c-.06,1.24,0,2.22-.18,3.15-1.01,4.89-2.12,9.76-3.14,14.64-.57,2.73,.64,4.47,3.41,4.61,3.49,.17,7,.06,10.5,.09,.79,0,1.08-.41,1.24-1.1,.51-2.21-.11-3.06-2.35-3.09-1.75-.02-3.5-.04-5.25-.06-.65,0-1.31-.04-1.36-.91-.05-.89,.2-1.64,1.19-1.84,.42-.09,.87-.04,1.31-.05,2.12-.02,4.25,0,6.37-.06,1.15-.03,2.28-.27,2.94-1.35,1.98-3.22,3.04-6.72,2.77-10.5-.17-2.29-1.73-3.51-4.04-3.54-1.06-.01-2.13,.05-3.19-.02-1.37-.09-2.26,.52-2.84,1.71-.33,.66-.69,1.3-1.04,1.95-.09-.69,.07-1.23,.19-1.77,.3-1.44,.02-1.82-1.45-1.86-1.74-.04-3.49,0-5.07,0Zm-6.82,22.43c0-1.07-.13-1.88,.02-2.64,1.01-4.95,2.08-9.89,3.12-14.84,.62-2.93,1.23-5.86,1.84-8.79,.13-.63,.28-1.42-.6-1.47-1.96-.1-3.93-.03-5.67-.03-.06,1.09,.02,2.07-.17,3-1.47,7.09-3,14.16-4.5,21.24-.1,.49-.22,.98-.22,1.48-.01,1.35,.54,1.98,1.88,2.04,1.43,.06,2.86,.01,4.29,.01Zm-10.74-.02c.07-1.1,.03-2.07,.22-3,.79-3.91,1.65-7.81,2.48-11.72,.78-3.66,1.56-7.32,2.3-10.99,.35-1.73,0-2.15-1.77-2.18-1.55-.03-3.11,0-4.46,0,0,1.02,.16,2-.03,2.92-1.45,6.96-2.97,13.91-4.45,20.87-.17,.79-.31,1.6-.34,2.4-.04,1.03,.51,1.68,1.57,1.71,1.55,.04,3.1,.01,4.47,.01Z"/>
  <path class="cls-1" d="M108.02,67.58c-4.91,1.78-9.55,3.6-14.28,5.14-8.69,2.83-17.63,4.52-26.74,5.4-10.52,1.01-20.96,.68-31.29-1.66-5.51-1.25-10.79-3.14-15.57-6.23-4.02-2.59-7.34-5.83-9.15-10.36-2.19-5.46-1.37-10.74,1.25-15.89-.01,.23,0,.47-.04,.7-.06,.31-.17,.6-.23,.91-.9,4.42,.18,8.43,2.63,12.09,3.09,4.6,7.5,7.62,12.4,9.99,7.33,3.55,15.15,5.37,23.18,6.38,8.72,1.1,17.46,1.11,26.18,.26,10.1-.98,19.99-3.01,29.54-6.51,.53-.19,1.06-.36,1.59-.53,.04-.01,.1,.06,.5,.3Z"/>
  <path class="cls-1" d="M40.29,16.52c6.08-3.32,12.47-5.8,19.07-7.74,12.67-3.74,25.59-5.65,38.82-5.2,9.23,.32,18.28,1.69,26.79,5.54,4.14,1.87,7.88,4.3,10.88,7.78,4.63,5.37,5.83,12.95,2.77,19.47-.02-.24-.05-.4-.03-.56,.82-7.04-2.34-12.3-7.53-16.61-3.69-3.07-7.93-5.18-12.41-6.83-6.9-2.54-14.05-3.88-21.36-4.56-5.8-.54-11.61-.63-17.4-.25-13.35,.87-26.34,3.48-38.75,8.63-.27,.11-.55,.22-.83,.33Z"/>
  <path class="cls-1" d="M9.8,19.49c.06-3.43,2.71-6,6.13-5.96,3.46,.04,6.16,2.85,6.03,6.29-.13,3.41-2.83,6.03-6.18,5.98-3.48-.05-6.06-2.77-5.99-6.31Zm6.01,5.39c2.83,.01,5.26-2.4,5.26-5.22,0-2.82-2.45-5.28-5.24-5.25-2.73,.03-5.11,2.4-5.17,5.14-.06,2.82,2.35,5.32,5.15,5.33Z"/>
  <path class="cls-1" d="M59.11,43.58c-.46,1.97-.89,3.77-1.33,5.65-1.66,0-3.21,0-4.76,0-.9,0-1.34-.57-1.16-1.32,.31-1.25,.78-2.48,1.33-3.65,.16-.35,.81-.63,1.25-.65,1.48-.08,2.97-.03,4.66-.03Z"/>
  <path class="cls-1" d="M94.57,43.45c.47-1.98,.9-3.78,1.38-5.79,1.58,0,3.12-.06,4.65,.02,1.02,.05,1.57,.78,1.3,1.83-.28,1.07-.72,2.14-1.29,3.08-.27,.44-1,.78-1.56,.83-1.42,.11-2.85,.04-4.47,.04Z"/>
  <path class="cls-1" d="M13.41,16.53c.92,0,1.83-.01,2.75,0,.86,.02,1.63,.23,1.9,1.18,.26,.89-.05,1.58-.82,2.08-.15,.1-.3,.21-.5,.35,.58,.86,1.15,1.71,1.75,2.6-1.24,.52-1.38-.43-1.76-.99-.56-.82-1.02-1.78-2.41-1.38-.12,.86-.24,1.75-.36,2.65l-.55-.06v-6.42Zm.89,.75v1.97c.61,.03,1.14,.18,1.58,.04,.46-.15,1.11-.53,1.17-.9,.13-.73-.52-1.05-1.2-1.1-.48-.03-.96,0-1.55,0Z"/>
</svg>