<?xml version="1.0" encoding="UTF-8"?>
<svg id="_8-logos" data-name="8-logos" xmlns="http://www.w3.org/2000/svg" viewBox="0 0 152.85 61.57">
  <defs>
    <style>
      .cls-1 {
        fill: #c9c9c9;
      }
    </style>
  </defs>
  <path class="cls-1" d="M148.71,31.31c-.36,1.71-.64,3.44-1.1,5.12-1.96,7.24-5.96,13.13-11.95,17.69-2.59,1.98-5.32,2.4-8.23,.86-2.7-1.44-3.93-4.2-3.51-7.84-.42,.35-.73,.57-.99,.82-3.4,3.34-7.36,5.81-11.86,7.42-3.87,1.39-7.8-.32-9.24-4.01-1.47-3.77,.31-7.69,4.21-9.25,.53-.21,1.06-.43,1.32-.54-1.91-2.56-3.8-5.09-5.63-7.55,.02-.05-.12,.24-.19,.55-1.66,7.81-5.61,14.21-11.91,19.14-4.44,3.48-8.55,2.82-11.76-1.91-.17,.21-.35,.39-.48,.59-1.92,2.91-4.99,4.1-8.18,3.17-3.04-.89-4.99-3.57-5.02-7.01-.04-4.1,0-8.2,0-12.69-.3,.56-.47,.79-.55,1.05-2.05,7.23-6.15,13.06-12.23,17.49-3.77,2.75-8.57,1.59-10.76-2.55-.93-1.76-1.86-3.52-2.89-5.47-2.46,6.24-9.06,9.97-16.3,9.46-9.08-.63-16.3-7.72-17.1-16.78-.79-8.97,5.22-17.23,14.09-19.35,4.81-1.15,9.34-.37,13.6,2.06,.96,.55,1.9,1.14,2.88,1.74,1.26-6.31,3.77-9.22,8.46-9.87,4.49-.62,7.98,1.52,10.31,6.1,2.02-.1,3.98-.61,5.71-.17,1.72,.44,3.18,1.83,4.77,2.81,0-.24,0-.8,0-1.36,.05-4.32,3.05-7.49,7.09-7.49,4.04,0,7.1,3.17,7.11,7.47,.02,7.46,0,14.92,0,22.38,0,.32,0,.63,0,1.08,6.01-4.05,9.66-9.32,9.57-16.66-.03-2.24,.09-4.37,1.71-6.32-3.99-.91-6.82-3.02-8.02-6.88-.81-2.62-.48-5.17,.9-7.55,2.77-4.79,9.04-6.23,13.65-3.15,5.18,3.46,5.55,9.37,1.16,15.13,1.56,1.5,3.09,2.98,4.65,4.49,.02-.04,.2-.37,.35-.73,3.11-7.47,11.35-11.33,19.02-8.91,7.83,2.48,12.29,10.28,10.38,18.29-.41,1.7-.95,3.39-1.59,5.01-.62,1.58-1.45,3.07-2.31,4.85,.46-.36,.79-.55,1.05-.81,3.91-3.91,5.81-8.6,5.51-14.14-.22-4,2.2-7.14,6.04-7.81,3.47-.6,6.8,1.6,7.93,5.24,.07,.24,.22,.46,.33,.69v6.08Zm-101,8.52c-.46-.67-.79-1.14-1.12-1.62-4.55-6.68-10.17-12.23-17.4-15.97-7.29-3.77-16.22-1.32-20.83,5.52-4.61,6.85-3.35,16.03,2.94,21.43,6.16,5.29,15.4,5.22,21.45-.16,2.37-2.11,2.67-5.15,.71-7.37-1.91-2.17-4.87-2.28-7.28-.26-2.64,2.2-6.09,2.19-8.47,0-2.27-2.1-2.64-5.64-.85-8.16,1.87-2.64,5.37-3.48,8.26-1.72,2.27,1.38,4.46,2.95,6.45,4.7,4.31,3.78,7.48,8.44,9.97,13.58,1.64,3.38,4.98,4.42,7.81,2.32,8.99-6.68,13.23-15.65,12.65-26.83-.11-2.21-1.63-3.96-3.68-4.55-3.52-1-6.63,1.68-6.43,5.6,.25,4.93-1.08,9.36-4.19,13.51Zm63.85,.85c-2.09,.98-3.74,1.83-5.44,2.54-2.82,1.18-4.17,3.92-3.17,6.6,1.01,2.7,3.87,3.98,6.72,2.9,10.18-3.87,16.73-11.05,19.35-21.59,1.37-5.52-.29-10.3-4.81-13.81-4.46-3.47-9.47-3.9-14.46-1.29-5,2.61-7.47,6.98-7.17,12.6,.29,5.63,3.4,9.48,8.99,12.05Zm-35.96-6.77h0c0-4.58,.03-9.16,0-13.75-.03-3.1-2.13-5.28-5.01-5.3-2.95-.02-5.09,2.19-5.1,5.37-.02,9.16-.01,18.33,0,27.49,0,.68,.08,1.4,.3,2.04,.79,2.32,3.15,3.68,5.58,3.3,2.39-.38,4.18-2.37,4.21-4.92,.06-4.74,.02-9.48,.02-14.23Zm70.22-5.93c0-.85,.05-1.71,0-2.55-.21-2.92-2.5-5.04-5.26-4.92-2.87,.13-4.98,2.46-4.84,5.49,.35,7.5-2.5,13.45-8.51,17.97-2.38,1.79-2.81,4.82-1.13,7.08,1.73,2.33,4.84,2.8,7.25,.98,8.01-6.02,12.22-14.04,12.5-24.04Zm-46.49-.04c0-.85,.05-1.71,0-2.55-.22-2.92-2.53-5.02-5.3-4.87-2.82,.15-4.91,2.4-4.78,5.36,.32,7.55-2.49,13.56-8.55,18.12-2.37,1.78-2.76,4.86-1.08,7.09,1.75,2.31,4.82,2.75,7.26,.91,8.01-6.02,12.2-14.05,12.47-24.05ZM44.01,14.86c-4.16-.02-7.57,3.34-7.58,7.47,0,4.13,3.4,7.51,7.56,7.49,4.11-.01,7.44-3.3,7.48-7.39,.04-4.17-3.29-7.55-7.46-7.57ZM90.07,3.87c-4.07,0-7.35,3.22-7.35,7.24,0,4.02,3.28,7.3,7.31,7.31,4.21,0,7.38-3.15,7.36-7.35-.02-4.12-3.14-7.19-7.32-7.19ZM30.81,38.62c.06-.17,.12-.34,.19-.51-2.21-1.46-4.34-3.05-6.65-4.34-1.83-1.02-4.04-.22-5.18,1.53-1.1,1.68-.85,3.84,.61,5.26,1.49,1.45,3.8,1.69,5.4,.33,1.65-1.41,3.43-2.27,5.63-2.26Zm19.85-7.66c-2.03,.72-3.64,1.29-5.34,1.88,1.02,1.31,2.02,2.59,3.26,4.2,.73-2.14,1.37-4,2.08-6.08Z"/>
  <path class="cls-1" d="M121.77,27.94c-.03,3.21-2.66,5.76-5.88,5.71-3.23-.05-5.76-2.68-5.69-5.9,.07-3.13,2.67-5.66,5.8-5.64,3.2,.01,5.81,2.65,5.78,5.83Zm-1.29,.73c.02-2.07-1.67-3.78-3.74-3.79-2.08,0-3.77,1.7-3.76,3.77,.02,2.03,1.62,3.65,3.66,3.69,2.09,.04,3.82-1.62,3.84-3.68Z"/>
</svg>