<?xml version="1.0" encoding="UTF-8"?>
<svg id="_8-logos" data-name="8-logos" xmlns="http://www.w3.org/2000/svg" viewBox="0 0 118.21 96.93">
  <defs>
    <style>
      .cls-1 {
        fill: #c9c9c9;
      }
    </style>
  </defs>
  <path class="cls-1" d="M53,83.84c-8.46-.08-15.15-1.76-21.06-5.93-6.89-4.87-10.98-11.55-12.36-19.84-1.33-8.02,.06-15.7,3.66-22.89,6.82-13.65,17.72-22.45,32.51-26.26,7.41-1.91,14.88-1.82,22.12,.86,11.04,4.08,17.73,11.99,19.82,23.59,1.4,7.79-.03,15.26-3.32,22.38-6.49,14.03-19.7,24.36-34.93,27.31-2.53,.49-5.14,.63-6.42,.78Zm-.27-33.87c-.03-.06-.06-.11-.09-.17,.95-.82,1.9-1.65,2.84-2.47,3.65-3.2,5.72-7.35,7.11-11.89,.44-1.42-.4-2.76-1.84-3.22-1.47-.47-2.85,.18-3.4,1.6-.16,.41-.28,.84-.42,1.26-2.12,6.15-6.23,10.3-12.45,12.33-3.42,1.11-6.95,1.53-10.52,1.51-2.68-.02-5.37-.27-8.05-.42-1.65-.09-2.83,.91-2.98,2.5-.14,1.61,.89,2.84,2.55,3,1.19,.11,2.39,.23,3.58,.31,4.43,.28,8.86,.23,13.24-.63,1.42-.28,2.81-.66,4.24-.99,.6,2.15,2.17,3.07,4.29,3.24,1.65,.13,3.19-.31,4.6-1.14,2.68-1.58,5.35-3.19,8.02-4.79,1.22-.73,2.45-1.45,3.67-2.17,.86,1.13,.85,2.62,.03,3.71-.84,1.12-2.27,1.53-3.64,1.01-.75-.29-1.44-.26-2.07,.26-.65,.54-.78,1.25-.62,2.05,.42,2.05,2.21,3.41,4.31,3.27,2.26-.15,4.21-1.03,5.73-2.71,1.77-1.95,2.72-4.24,2.11-6.87-.81-3.44-2.84-6.24-5.15-8.83-.8-.9-2.23-.89-3.19-.17-.97,.73-1.27,2.02-.73,3.12,.07,.15,.15,.3,.28,.55-3.83,2.26-7.64,4.51-11.44,6.75Zm.48-20.98c-.03,1.69,1.47,2.86,3.21,2.46,5.22-1.19,10.43-2.4,15.65-3.61,1.46-.34,2.3-1.67,1.97-3.06-.32-1.36-1.64-2.15-3.08-1.83-1.38,.3-2.75,.63-4.12,.95-3.84,.89-7.68,1.77-11.52,2.66-1.27,.3-2.08,1.24-2.1,2.43Zm27.93,5.21s.09-.03,.13-.04c-.16-.56-.23-1.17-.49-1.68-.51-.97-1.62-1.4-2.67-1.16-1.13,.25-1.85,1.15-1.97,2.49-.47,5.31-.94,10.63-1.39,15.94-.12,1.4,.89,2.62,2.25,2.76,1.41,.14,2.62-.85,2.75-2.3,.48-5.33,.94-10.66,1.41-16Zm-2.33,25.73c.82-.02,1.44-.3,1.94-.83,3.72-3.85,7.44-7.7,11.15-11.56,1.09-1.14,1.09-2.68,.04-3.67-1.05-.99-2.58-.9-3.67,.22-1.84,1.9-3.68,3.8-5.52,5.71-1.88,1.95-3.76,3.89-5.63,5.84-.77,.81-.95,1.77-.51,2.79,.42,.98,1.23,1.45,2.2,1.5Z"/>
  <path class="cls-1" d="M98.71,18.9c1.03,1.31,2.15,2.57,3.09,3.95,5.21,7.69,6.32,16.03,3.72,24.88-1.78,6.06-5.13,11.23-9.43,15.8-4.12,4.38-8.92,7.88-14.23,10.69-.07,.03-.14,.06-.21,.08-.05-.06-.11-.12-.16-.17,.13-.05,.28-.08,.38-.16,5.33-4.38,9.67-9.57,12.87-15.69,3.23-6.19,5.09-12.76,5-19.77-.15-10.6-4.2-19.35-12.76-25.8-4.28-3.23-9.16-5.12-14.43-6.01-.25-.04-.49-.09-.72-.24,1.45,.17,2.9,.31,4.34,.52,6.7,.96,13.09,2.91,19.04,6.2,5.75,3.18,10.67,7.31,14.17,12.92,5.66,9.07,6.34,18.66,2.65,28.6-2.5,6.72-6.7,12.3-11.94,17.12-7.22,6.64-15.65,11.16-24.97,14.07-7.94,2.47-16.08,3.59-24.39,3.25-9.34-.39-18.22-2.52-26.4-7.18-5.6-3.2-10.36-7.34-13.74-12.89-5.21-8.55-6.02-17.61-2.87-27.05,2.08-6.25,5.68-11.58,10.26-16.26,8.3-8.48,18.4-13.83,29.77-16.9,2.91-.78,5.9-1.25,8.85-1.86,.11-.02,.23-.02,.35,0-1.19,.31-2.38,.59-3.56,.93-8.03,2.34-15.02,6.5-21.07,12.25-5.54,5.27-9.73,11.45-12.35,18.66-2.15,5.91-3.02,11.99-2.27,18.26,.65,5.36,2.48,10.28,5.6,14.7,.08,.12,.17,.23,.22,.37-2.21-1.69-4.18-3.62-5.82-5.85-5.96-8.13-7.23-17.03-4.24-26.59,1.36-4.35,3.6-8.25,6.4-11.83,.1-.12,.19-.24,.28-.37,.02-.03,.03-.07,.09-.2-.14,.09-.22,.12-.28,.18-4.48,4.81-8.01,10.2-9.72,16.61-2.97,11.15-.32,20.91,7.61,29.21,5.5,5.75,12.38,9.19,19.96,11.31,7.08,1.98,14.3,2.51,21.62,1.9,8.56-.72,16.72-2.9,24.42-6.7,8.62-4.25,15.96-10.04,21.33-18.13,2.98-4.49,5.01-9.38,5.69-14.76,.99-7.81-.9-14.89-5.49-21.26-1.81-2.5-4.88-5.61-6.66-6.81Z"/>
</svg>