<?xml version="1.0" encoding="UTF-8"?>
<svg id="_8-logos" data-name="8-logos" xmlns="http://www.w3.org/2000/svg" viewBox="0 0 127.86 71.62">
  <defs>
    <style>
      .cls-1 {
        fill: #c9c9c9;
      }
    </style>
  </defs>
  <path class="cls-1" d="M65.15,0c8.17,.32,16.29,.46,24.38,1.01,6.56,.44,13.11,1.18,19.61,2.1,10.95,1.54,17.37,12.95,13.03,23.09-2.64,6.17-5.43,12.29-8.47,18.26-3.28,6.44-8.81,9.69-16.05,9.88-3.79,.1-7.59,.04-11.39,0-1.02-.01-1.56,.27-1.83,1.33-.24,.96-.65,1.93-1.22,2.74-1.98,2.83-3.91,5.7-6.13,8.34-2.69,3.2-6.24,4.86-10.49,4.87-1.1,0-2.21-.02-3.31-.04-4.17-.07-7.52-1.93-10.12-5.02-2.07-2.45-3.87-5.12-5.73-7.74-.52-.73-.87-1.6-1.21-2.44-.82-2-.8-2.01-2.9-2.01-3.46,0-6.92,.07-10.38-.02-7.41-.18-13.01-3.49-16.33-10.14-2.93-5.88-5.69-11.85-8.3-17.87C3.89,16.14,10.27,4.64,21.27,3.13c7.08-.98,14.21-1.67,21.34-2.17,7.51-.52,15.06-.65,22.54-.96Zm.24,2.22c-3.84,0-7.68-.08-11.52,.01-10.67,.25-21.27,1.25-31.86,2.57-9.74,1.21-16.21,11.84-11.87,21.15,2.64,5.65,5.17,11.34,7.89,16.95,3.02,6.22,8.04,9.48,15.01,9.57,4.23,.05,8.46,.04,12.68,0,.98-.01,1.38,.24,1.64,1.24,.38,1.42,.88,2.87,1.67,4.1,1.56,2.41,3.25,4.75,5.06,6.99,2.75,3.41,6.31,5.24,10.81,4.94,.72-.05,1.44-.04,2.16-.04,2.83,0,5.22-1.08,7.32-2.92,2.86-2.5,4.9-5.64,6.9-8.8,.83-1.31,1.37-2.84,1.81-4.34,.27-.94,.64-1.17,1.55-1.16,4.23,.05,8.46,.05,12.68,.01,6.97-.07,12.02-3.29,15.06-9.5,2.78-5.69,5.4-11.45,8-17.22,3.96-8.78-1.7-19.33-11.19-20.8-4.08-.63-8.19-1.1-12.29-1.48-10.48-.98-20.98-1.51-31.51-1.25Z"/>
  <path class="cls-1" d="M91.57,51.02c-2.35,0-4.71-.04-7.06,.02-.94,.02-1.22-.29-1.26-1.22-.1-2.68-.64-5.23-2.47-7.35-1.76-2.04-3.95-3.16-6.67-3.17-5.81-.01-11.62,.1-17.43-.02-4.27-.08-8.25,2.91-9.19,7.74-.15,.75-.25,1.51-.31,2.28-.13,1.71-.12,1.71-1.89,1.71-4.08,0-8.16,.02-12.25-.01-1,0-2.02-.09-3-.27-4.98-.94-8.53-3.79-10.69-8.32-2.64-5.54-5.2-11.11-7.76-16.69-3.44-7.49-.12-15.84,7.52-18.69,1.73-.65,3.64-.88,5.48-1.11,9.96-1.26,19.95-2.08,29.99-2.24,6.43-.1,12.87-.25,19.3-.11,9.45,.22,18.89,.74,28.28,1.91,2,.25,4.01,.46,6,.74,9.5,1.32,14.67,10.84,10.63,19.54-2.52,5.43-5.02,10.88-7.58,16.3-2.79,5.92-7.46,8.93-14.04,8.95-1.87,0-3.75,0-5.62,0ZM65.24,4.35c-2.93,0-5.86-.11-8.79,.02-6.71,.3-13.43,.62-20.12,1.13-4.88,.38-9.76,.89-14.59,1.68-8.4,1.38-13,10.17-9.49,17.89,2.54,5.59,5.13,11.15,7.75,16.7,2.67,5.63,7.2,8.41,13.42,8.45,3.6,.02,7.21,0,10.81,0q1.95,0,2.22-1.87c.08-.52,.14-1.05,.25-1.56,.98-4.95,5.15-8.43,9.93-8.31,5.86,.14,11.72,.03,17.58,.03,3.1,0,5.53,1.31,7.46,3.7,1.58,1.96,2.18,4.26,2.36,6.67,.11,1.42,.24,1.34,1.58,1.34,3.8,0,7.59,.01,11.39,0,6.22-.03,10.76-2.78,13.43-8.42,2.63-5.55,5.22-11.11,7.76-16.7,3.59-7.89-1.26-16.76-9.86-18.03-3.42-.5-6.85-.94-10.29-1.26-10.9-1.02-21.83-1.57-32.79-1.47Z"/>
  <path class="cls-1" d="M65.24,40.7c2.79,0,5.57,0,8.36,0,3.93,.01,6.92,2.31,7.81,6.14,.91,3.94,.67,7.75-1.86,11.12-1.81,2.41-3.6,4.85-5.59,7.12-1.93,2.2-4.51,3.17-7.46,3.09-1.3-.04-2.59,0-3.89-.06-2.71-.15-4.92-1.46-6.58-3.44-2.09-2.49-4.03-5.13-5.8-7.85-2.24-3.44-2.07-7.22-.85-10.95,1.07-3.26,3.79-5.11,7.23-5.15,2.88-.03,5.76,0,8.65,0Zm0,.88h0c-2.69,0-5.37-.02-8.06,0-3.56,.02-6.08,1.64-7.06,4.8-1.07,3.46-1.16,6.94,.94,10.11,1.61,2.43,3.33,4.81,5.16,7.08,2.07,2.56,4.78,3.94,8.18,3.7,.72-.05,1.44-.02,2.16,0,2.48,.07,4.73-.65,6.38-2.48,2.04-2.27,3.86-4.74,5.74-7.16,2.24-2.88,2.69-6.17,2.06-9.67-.74-4.15-3.36-6.36-7.57-6.37-2.64,0-5.28,0-7.92,0Z"/>
  <path class="cls-1" d="M86.6,23.9c2.55,0,4.74-.05,6.92,.02,1.09,.03,1.78,.77,1.81,1.87,.02,.6-.11,1.25-.34,1.81-.67,1.59-1.4,3.15-2.17,4.7-.97,1.96-2.42,3.02-4.79,2.95-4.27-.13-8.54-.03-12.82-.03-2.59,0-3.52-1.21-2.5-3.54,2.21-5.04,4.55-10.03,6.87-15.02,.14-.31,.62-.66,.94-.67,2.39-.06,4.78-.03,7.41-.03-.59,1.3-1.08,2.42-1.59,3.53-1.86,4.05-3.73,8.09-5.59,12.14-.1,.22-.21,.44-.28,.66-.19,.61-.75,1.38,.02,1.81,.6,.33,1.54,.51,2.14,.28,.74-.29,1.49-.96,1.87-1.66,1.11-2.07,2.04-4.22,3.02-6.36,.41-.9,.08-1.66-.93-2.45Z"/>
  <path class="cls-1" d="M52.87,24.4c.42-.17,.84-.5,1.26-.5,5.57-.03,11.13-.03,16.7,0,1.39,0,2.06,.81,2.06,2.22,0,.14,.03,.3-.02,.43-1,2.69-1.9,5.43-3.84,7.63-.65,.74-1.55,1.05-2.58,1.04-4.66-.03-9.31,0-13.97-.02-2.05,0-2.95-1.12-2.26-3.06,.72-2.02,1.69-3.96,2.6-5.91,.13-.27,.57-.55,.87-.56,2.4-.05,4.79-.03,7.43-.03-.72,1.59-1.37,3-2.01,4.43-.39,.87-.84,1.73-1.15,2.63-.39,1.15,.05,1.74,1.26,1.85,1,.09,1.91-.25,2.36-1.08,1.09-2.01,2.13-4.07,3.01-6.18,.45-1.08-.21-1.96-1.4-2.21-.51-.11-1.05-.11-1.57-.11-2.4-.01-4.8,0-7.2-.01-.46,0-.92-.04-1.39-.06-.06-.17-.11-.34-.17-.51Z"/>
  <path class="cls-1" d="M92.36,34.4c1.61-.35,2.55-1.45,3.2-2.84,1.03-2.21,2.07-4.42,3.04-6.65,.34-.77,.79-1.06,1.63-1.04,2.19,.05,4.38,.02,6.71,.02-.15,.48-.21,.79-.34,1.08-1.03,2.26-2.09,4.51-3.11,6.78-1.06,2.37-2.66,3.79-5.45,3.49-1.14-.12-2.3,.04-3.45-.03-.77-.05-1.53-.27-2.29-.41,.02-.13,.03-.26,.05-.39Z"/>
  <path class="cls-1" d="M26.56,17.82c1.89-1.12,2.18-3.1,2.96-4.76,.25-.53-.08-.81-.63-.82-.97-.02-1.45,.61-1.82,1.39-1.09,2.35-2.23,4.67-3.26,7.04-.4,.94-.93,1.33-1.95,1.22-.84-.08-1.7-.02-2.68-.02,.12-.42,.17-.7,.28-.94,1.05-2.31,2.1-4.62,3.17-6.92,.69-1.48,1.79-2.28,3.51-2.24,2.11,.06,4.23,0,6.34,.02,1.39,.02,1.65,.4,1.13,1.67-.29,.71-.62,1.4-.96,2.09-.75,1.51-1.91,2.35-3.67,2.26-.81-.04-1.62,0-2.44,0Z"/>
  <path class="cls-1" d="M44.55,23.98c.31,.07,.63,.16,.94,.2,.95,.11,1.71-.16,2.13-1.09,.83-1.83,1.68-3.66,2.48-5.5,.12-.29,.11-.91-.03-.98-.34-.16-.79-.11-1.2-.1-.12,0-.28,.12-.35,.23-.98,1.56-2.01,3.11-2.03,5.15-.86,0-1.82,.04-2.77,0-1.12-.05-1.53-.67-1.21-1.72,.06-.18,.14-.36,.22-.53,1.82-4.23,1.84-3.69,5.46-3.65,1.58,.02,3.17-.03,4.75,0,1.35,.02,1.81,.6,1.31,1.82-.89,2.12-1.86,4.21-2.89,6.26-.23,.45-.84,.94-1.31,.98-1.43,.12-2.87,.09-4.3,0-.45-.03-.88-.45-1.32-.69,.04-.11,.09-.23,.13-.34Z"/>
  <path class="cls-1" d="M86.16,23c1.83-2.94,4.67-4.46,7.93-5.05,2.34-.42,4.76-.52,7.14-.53,3.23-.01,6.29-.51,9.05-2.28,.15-.1,.32-.16,.69-.04-.39,.42-.76,.86-1.18,1.26-3.64,3.43-8.09,4.6-12.94,4.54-3.04-.04-6.04,.03-8.88,1.28-.61,.27-1.21,.54-1.82,.82Z"/>
  <path class="cls-1" d="M59.8,21.89c.88-1.95,1.64-3.64,2.41-5.34-1.57-.34-2.1-.12-2.74,1.14-.41,.81-.82,1.63-1.12,2.49-.17,.49-.13,1.07-.2,1.72-.87,0-1.87,.03-2.87,0-1-.04-1.48-.68-1.13-1.65,.41-1.12,.91-2.22,1.54-3.23,.29-.47,.97-.96,1.48-.97,3.1-.09,6.19-.04,9.56-.04-.92,1.98-1.72,3.75-2.58,5.49-.11,.22-.53,.39-.82,.41-1.1,.05-2.2,.02-3.52,.02Z"/>
  <path class="cls-1" d="M36.17,19.2c.22-.05,.43-.13,.65-.15,1.11-.09,1.98-.88,1.96-1.93,0-.25-.46-.74-.64-.7-.48,.09-1.1,.27-1.33,.64-.59,.92-1.06,1.93-1.45,2.95-.28,.73,.17,1.25,1.05,1.29,1.05,.05,2.11,.01,3.17,.01,.46,0,.91,0,1.37,0,.02,.11,.03,.23,.05,.34-.27,.08-.55,.24-.82,.24-2.59,.02-5.19,.03-7.78,0-1.3-.01-1.75-.63-1.3-1.84,.35-.94,.8-1.85,1.25-2.75,.45-.89,1.19-1.34,2.21-1.33,2.35,0,4.71-.02,7.06,0,1.11,.01,1.45,.48,1.27,1.56-.27,1.6-.83,2.08-2.46,2.08-1.41,0-2.83,0-4.24,0,0-.13,0-.27,0-.4Z"/>
  <path class="cls-1" d="M73.98,11.8c-.62,1.47-1.14,2.8-1.72,4.09-.77,1.7-1.63,3.36-2.39,5.07-.29,.66-.64,.98-1.39,.94-1-.06-2-.01-3.11-.01,.12-.42,.17-.69,.28-.94,1.22-2.71,2.48-5.4,3.68-8.12,.33-.75,.76-1.12,1.62-1.04,.95,.08,1.91,.02,3.04,.02Z"/>
  <path class="cls-1" d="M111.03,12.99c-1.33,1.49-3.07,2.2-4.89,2.61-1.58,.35-3.22,.56-4.84,.59-3.11,.06-6.23-.11-9.21,1.16-.05-.12-.09-.23-.14-.35,.79-.47,1.54-1.03,2.37-1.41,2.45-1.12,5.09-1.3,7.74-1.35,2.53-.04,5.1,.22,7.54-.72,.47-.18,.95-.35,1.43-.53Z"/>
  <path class="cls-1" d="M71.27,21.89c.26-2.13,2.21-3.58,1.63-5.92,1.02,0,2.1-.05,3.17,.01,.95,.06,1.42,.68,1.09,1.58-.48,1.3-1.08,2.56-1.71,3.8-.13,.26-.59,.48-.91,.5-1.05,.06-2.1,.02-3.28,.02Z"/>
  <path class="cls-1" d="M99.11,38.74c-.35,.88-.43,1.73-.83,1.93-.55,.27-1.45,.25-1.99-.04-.39-.21-.43-1.06-.62-1.62l.25-.15c-.44-.14-.95-.19-1.3-.45-.3-.22-.59-.7-.57-1.05,.02-.34,.39-.88,.69-.95,.56-.13,1.24-.12,1.78,.07,.63,.22,.63,.85,.52,1.47-.03,.19,.27,.44,.53,.57-.21-1.45,.05-2.05,1.07-2.28,.87-.19,1.71,.17,1.92,.85,.27,.83-.25,1.34-1.44,1.66Z"/>
  <path class="cls-1" d="M56.08,47.54c-.77-.85-1.42-1.49-1.97-2.19-.19-.24-.16-.66-.23-1,.33-.06,.73-.26,.99-.15,5.27,2.23,10.78,2.18,16.3,1.62,1.48-.15,2.89-.91,4.34-1.37,.36-.12,.75-.15,1.13-.22-.04,.39-.02,.79-.12,1.16-.08,.31-.31,.58-.35,1.09,.46-.18,.9-.39,1.37-.52,.31-.09,.66-.06,.99-.09-.18,.32-.33,.67-.54,.97-.1,.14-.31,.2-.54,.33,.31,.39,.84,.77,.8,1.08-.06,.47-.48,.91-.82,1.31-.92,1.1-2.06,1.91-3.5,2.12-1.06,.15-1.31,.69-1.29,1.65,.02,1.34-.13,2.68-.12,4.03,0,.73-.25,1.14-.91,1.44-.95,.44-1.87,.95-3.02,1.55,.7,.5,1.26,.84,1.73,1.27,.21,.2,.25,.59,.37,.89-.33-.02-.7,.04-.98-.09-.76-.36-1.53-1.18-2.2-1.09-.58,.08-1.04,1.14-1.51,1.81-.35,.5-.71,.84-1.39,.79-1.72-.12-3.45-.15-5.18-.26-1.33-.09-1.86-1.37-1.49-2.67,.51-1.78,.87-3.63,1.01-5.47,.06-.76-.77-1.55-.91-2.37-.26-1.54-1.27-2.24-2.51-2.93-1.58-.89-1.54-1.1-.11-2.28,.18-.15,.41-.25,.66-.39Zm20.92,.91c-1.29-.75-2.15-.78-3.01-.03-.7,.62-1.21,1.72-2.3,.51-.05-.06-.28,.02-.42,.05-3.42,.73-6.85,.69-10.3,.28-.34-.04-.89,.02-1.02,.23-.52,.81-.91,1.71-1.32,2.53,.7,.26,1.39,.31,1.68,.67,.46,.58,.67,1.36,.96,2.07,.06,.15,.06,.47-.02,.51-.18,.09-.43,.11-.63,.06-.2-.05-.37-.23-.72-.46-.23,1.63-.43,3.09-.64,4.54-.09,.61,.14,.86,.78,.87,1.05,.01,2.11,.07,3.16,.15,.79,.07,1.22-.24,1.54-.96,.77-1.75,1.62-3.47,2.43-5.2,.87-1.86,.89-1.87,3.14-1.35-.3,.66-.56,1.33-.9,1.95-.11,.21-.43,.47-.63,.44-1-.12-1.33,.53-1.66,1.26-.54,1.17-1.11,2.34-1.68,3.5-.87,1.75-.47,1.47-2.33,1.39-1.2-.05-2.39-.17-3.59-.18-.3,0-.59,.34-.89,.52,.24,.32,.42,.72,.73,.93,.24,.16,.65,.09,.99,.1,1.1,.03,2.22-.03,3.31,.11,.95,.12,1.57-.16,2.02-.96,.91-1.62,2.29-2.66,4.01-3.3,.36-.13,.68-.37,1.03-.5,.61-.24,.86-.63,.87-1.31,0-1.53,.12-3.06,.13-4.59,0-.85,.21-1.27,1.19-1.36,1.67-.16,3.14-.83,4.1-2.43Zm-2.49-2.3c-3.25,.94-6.27,.83-9.28,.85-3,.02-5.95-.27-9.1-1.18,3.61,3.55,14.89,3.75,18.38,.33Z"/>
  <path class="cls-1" d="M63,55c-.51-1.36-.93-2.42-1.27-3.5-.07-.21,.19-.53,.3-.79,.2,.14,.48,.24,.6,.43,.23,.39,.37,.83,.64,1.47,.45-.65,.73-1.15,1.11-1.55,.16-.18,.53-.17,.8-.24,0,.25,.11,.56,0,.74-.63,1.06-1.32,2.1-2.17,3.43Z"/>
</svg>