<?xml version="1.0" encoding="UTF-8"?>
<svg id="_8-logos" data-name="8-logos" xmlns="http://www.w3.org/2000/svg" viewBox="0 0 182.21 73.07">
  <defs>
    <style>
      .cls-1 {
        fill: #c9c9c9;
      }
    </style>
  </defs>
  <path class="cls-1" d="M37.68,44.45c-1.91,1.36-4.05,1.59-6.29,1.37-2.8-.27-5.4-2.31-6.08-4.8-.71-2.6,.43-5.44,2.82-7.18,2.64-1.92,5.53-2.36,8.64-1.47,.37,.11,.74,.21,1.28,.37,0-1.31,.1-2.49-.03-3.66-.13-1.29-1.14-2.16-2.49-2.42-2.66-.51-4.99,.67-6.11,3.15-.34,.76-.43,1.63-.76,2.4-.16,.37-.58,.78-.95,.86-.62,.14-.85-.36-.85-.93,0-2.48,0-4.97,0-7.45,0-.58,.19-.95,.86-.95,.66,0,.84,.39,.85,.96,.01,.63,.06,1.26,.11,2.14,2.42-1.64,4.9-2.08,7.56-1.89,3.99,.29,6.5,2.89,6.51,6.89,0,3.08-.02,6.16,0,9.24,.02,2.35,1.41,3.37,3.78,2.84,.48-.11,.97-.14,1.57-.22v-13.29c-.8-.02-1.81,.86-2.28-.65,.43-.37,.89-.81,1.38-1.2,1.55-1.24,3.1-2.49,4.68-3.7,.9-.69,1.08-.65,2.03,.29-.27,.37-.54,.76-.97,1.36,1.2-.53,2.17-1.12,3.21-1.37,1.09-.25,2.26-.17,3.51-.24,.06-.17,.07-.55,.26-.69,.32-.23,.77-.45,1.13-.41,.24,.03,.61,.51,.61,.79,.05,2.38,.03,4.77,.03,7.15,0,.64-.34,.88-.94,.87-.61-.01-.91-.31-.92-.92,0-.45,0-.89-.02-1.34-.08-1.96-1.43-3.25-3.36-3.21-2.03,.04-3.56,1.48-3.57,3.36,0,3.53-.02,7.05,0,10.58,.01,2.18,.12,2.24,2.2,2.78,.32,.08,.54,.54,.81,.83-.28,.22-.55,.64-.83,.64-2.88,0-5.77-.08-8.65-.1-1.47,0-2.94,.09-4.41,.13-.85,.02-1.7,.09-2.54,0-.59-.07-1.15-.38-1.73-.59-.03-.11-.05-.22-.08-.33Zm.43-5.62c0-.74,.06-1.49-.02-2.23-.04-.4-.22-.88-.51-1.15-1.1-1.06-2.44-1.71-3.99-1.82-2.06-.15-3.89,1.03-4.45,2.79-.8,2.53,.69,5.82,3.11,6.89,3.07,1.37,5.85-.42,5.86-3.75,0-.25,0-.5,0-.74Z"/>
  <path class="cls-1" d="M64.63,30.12c-.91,.64-1.68,.97-2.27-.26,.23-.25,.45-.57,.75-.8,1.79-1.43,3.6-2.83,5.38-4.26,.52-.42,1.09-.7,1.55-.1,.23,.3,.13,.86,.18,1.3,2.82-1.36,5.71-1.92,8.25,.74,1.14-.53,2.16-1.22,3.29-1.48,1.18-.27,2.48-.33,3.67-.13,1.97,.33,3.17,2,3.22,4.27,.07,3.68,.03,7.35,.05,11.03,0,.5,.01,.99,.06,1.49,.12,1.12,.64,1.86,1.88,1.89,.55,.01,1.19,.03,1.17,.81-.02,.89-.73,.79-1.32,.79-2.09,0-4.19,0-6.28-.06-.57-.01-1.5,.32-1.52-.65,0-.41,.65-.83,1-1.25,.11,.06,.22,.12,.32,.18,.02-.49,.06-.97,.06-1.46,0-4.02,0-8.05-.01-12.07,0-.49-.03-1-.15-1.47-.26-1-.94-1.46-2-1.39-1.91,.14-2.92,1.22-2.92,3.15,0,3.53,0,7.06,0,10.58,0,2.08,.09,2.14,1.98,2.92,.28,.12,.56,.52,.61,.83,.03,.17-.42,.6-.65,.61-2.44,.05-4.88,.05-7.32,0-.25,0-.68-.38-.68-.58,0-.3,.27-.65,.51-.88,.15-.14,.46-.11,.79-.17,.04-.4,.11-.78,.11-1.16,0-4.22,.01-8.45,0-12.67,0-1.87-.64-2.66-2.06-2.63-1.69,.03-2.95,1.23-2.95,2.82,0,3.68,0,7.35,0,11.03,0,1.97,.13,2.08,1.93,2.78,.28,.11,.64,.57,.6,.8-.04,.27-.49,.66-.77,.67-2.54,.05-5.08,.05-7.62,0-.28,0-.55-.41-.83-.64,.26-.29,.48-.66,.8-.84,.28-.15,.67-.09,1.14-.13v-13.62Z"/>
  <path class="cls-1" d="M154.55,44.21c-2.86,1.54-6.1,1.85-9.43,1.62-3.86-.26-6.97-1.89-9.28-4.97-2.6-3.47-1.89-8.59,1.57-11.72,1.62-1.46,3.49-2.46,5.61-2.96,3.78-.9,7.5-.83,11.11,.76,.18,.08,.37,.15,.55,.22,.04,.01,.09-.03,.26-.08v-8.34c-.46,.13-.91,.38-1.34,.34-.37-.04-.7-.41-1.13-.68,.3-.37,.44-.65,.67-.82,1.9-1.44,3.83-2.84,5.73-4.28,.79-.6,1.35-.41,1.89,.51-1.33,.83-1.08,2.16-1.08,3.42,0,7.6,0,15.2,0,22.8,0,.55,0,1.09,.04,1.64,.12,1.69,.34,1.92,2.01,2.19,.1,.02,.23-.02,.29,.03,.26,.23,.49,.49,.73,.74-.25,.24-.5,.68-.75,.68-2.04,.06-4.08,.1-6.12,0-.39-.02-.75-.61-1.35-1.12Zm.51-7.91c0-1.44-.08-2.88,.02-4.31,.1-1.31-.45-2.18-1.47-2.86-3.05-2.05-6.34-2.44-9.81-1.31-2.26,.74-3.97,2.17-4.61,4.48-.91,3.31-.12,6.34,2.36,8.74,3.24,3.13,8.8,3.71,12.77,1.43,.37-.21,.69-.82,.71-1.26,.08-1.63,.03-3.27,.03-4.91Z"/>
  <path class="cls-1" d="M4.5,47.17H162.68v1.58c-.62,0-1.15,0-1.69,0-51.4,0-102.8,0-154.2-.01-.4,0-.8,.02-1.2,.01-1.3-.03-1.35-.1-1.1-1.58Z"/>
  <path class="cls-1" d="M13.47,25.63c0,1.59,0,3.12,0,4.66,0,3.33,0,6.66,0,9.98,0,.54,.02,1.09,.09,1.63,.12,.96,.65,1.53,1.67,1.55,.55,.01,1.1,.06,1.64,.05,.68-.02,1,.24,1.01,.95,0,.75-.43,.96-1.04,.96-3.84,0-7.67,0-11.51-.02-1.27,0-1.13-.8-.87-1.79,1.1-.05,2.21-.1,3.44-.15,.03-.56,.07-1.04,.07-1.52,0-7.25,0-14.5,0-21.75,0-.3,0-.6-.01-.89-.08-2.05-.28-2.22-2.35-2.43-.45-.05-1.1-.32-1.26-.67-.35-.8,.12-1.24,1.21-1.24,5.08,0,10.16,0,15.24,0,.58,0,1.16,0,1.79,0,.1-.66,.17-1.14,.27-1.76h2.08c.05,.32,.16,.64,.16,.97,.01,2.88-.02,5.76,.02,8.64,.01,.85-.2,1.3-1.14,1.31-.99,0-1.3-.45-1.25-1.38,.21-4.51-1.79-5.6-5.88-5.81-1.04-.05-2.08,0-3.27,0v6.47h3.46c0-.99,.03-1.92,0-2.84-.04-.94,.45-1.19,1.29-1.19,.82,0,1.17,.32,1.16,1.15-.02,2.98,0,5.96,.01,8.94,0,.84-.39,1.13-1.19,1.12-.74-.01-1.29-.16-1.28-1.05,0-.45,0-.89,0-1.34-.06-2.07-1.21-2.95-3.59-2.51Z"/>
  <path class="cls-1" d="M120.74,25.24c-.4,.52-.71,.92-1.02,1.32,.06,.07,.13,.14,.19,.21,.36-.2,.74-.38,1.08-.6,1.47-.96,3.07-1.33,4.83-1.23,3.14,.18,4.94,1.96,4.99,5.13,.05,3.23,.01,6.46,.02,9.69,0,.7,0,1.39,.02,2.09,.03,1.06,.43,1.84,1.62,1.94,.58,.05,1.15,.16,1.06,.93-.09,.8-.76,.65-1.28,.66-2.19,.03-4.38,.05-6.58,.03-.58,0-1.42,.28-1.51-.72-.1-1.06,.76-.79,1.35-.88,.14-.02,.28-.08,.57-.17,.03-.44,.09-.92,.09-1.4,.01-3.83,.01-7.65,.01-11.48,0-.1,0-.2,0-.3-.07-2.26-.94-3.27-2.79-3.24-1.88,.03-3.66,1.62-3.67,3.42-.04,3.68-.03,7.35,0,11.03,.01,1.5,.39,1.89,1.9,2.15,.56,.09,1.26,.12,1.04,.87-.1,.33-.79,.66-1.22,.67-2.34,.06-4.68,.03-7.02,.02-.57,0-1.3,.16-1.32-.76-.02-.92,.69-.78,1.28-.81,.14,0,.28-.07,.55-.14v-13.41c-.87,.39-1.75,.91-2.3-.48,.39-.35,.81-.76,1.26-1.12,1.64-1.3,3.3-2.56,4.93-3.86,.81-.64,1.41-.55,1.93,.43Z"/>
  <path class="cls-1" d="M95.42,26.93c2.54-1.77,4.98-2.16,7.59-1.98,4.11,.29,6.55,2.84,6.56,6.97,0,2.88,0,5.76,0,8.64,0,.49,.05,.99,.09,1.48,.09,1.1,.66,1.73,1.81,1.77,.55,.02,1.19-.03,1.19,.77,0,.91-.73,.79-1.31,.8-1.64,.03-3.29,.08-4.93,0-.64-.03-1.27-.39-2.23-.71-1.52,1.12-3.65,1.38-5.89,1.16-2.9-.28-5.42-2.24-6.1-4.75-.73-2.7,.26-5.36,2.7-7.19,2.66-1.99,5.59-2.45,8.76-1.49,.32,.1,.64,.2,1.15,.35,0-1.38,.13-2.66-.04-3.89-.16-1.17-1.02-1.89-2.2-2.16-2.61-.6-4.91,.4-6.14,2.79-.42,.83-.67,1.76-.91,2.66-.16,.6-.35,1.01-1.07,.94-.66-.07-.78-.5-.78-1.05,0-2.43,0-4.87,0-7.3,0-.65,.25-1.04,.97-1.01,.7,.04,.76,.52,.76,1.05,0,.59,0,1.17,0,2.15Zm9.47,11.76c0-.3-.06-.61,0-.89,.42-1.82-.57-2.79-2.07-3.43-.68-.29-1.38-.59-2.11-.69-2.37-.35-4.34,.98-4.85,3.18-.58,2.49,.98,5.54,3.32,6.53,3.01,1.27,5.7-.45,5.7-3.65,0-.35,0-.69,0-1.04Z"/>
  <path class="cls-1" d="M26.95,14.63v-1.53H156.4c-.73,1.18-1.65,1.52-2.9,1.52-25.77-.02-51.54-.02-77.31-.01-15.75,0-31.5,.02-47.25,.03-.64,0-1.27,0-2,0Z"/>
  <path class="cls-1" d="M121.66,59.22c.95-.32,1.91-.64,2.97-1,.13,.63,.21,1.04,.33,1.61,2.06-1.37,4.12-2.64,6.21,.02,.51-.34,1.02-.7,1.56-1.02,2.39-1.41,4.59-.23,4.67,2.52,.04,1.24-.08,2.49,.04,3.72,.07,.74,.47,1.44,.73,2.17h-3.71c1.24-.4,1.09-1.41,1.09-2.35,0-1.24,.04-2.48-.02-3.72-.07-1.29-.65-1.74-1.95-1.68-1.57,.07-2.44,.95-2.45,2.5,0,.99,.02,1.99-.01,2.98-.03,1.01,.09,1.91,1.29,2.28h-4.2c1.25-.48,1.16-1.56,1.13-2.61-.03-1.14,.02-2.28-.05-3.42-.08-1.25-.71-1.78-1.92-1.77-1.27,.02-2.5,.85-2.53,1.83-.05,1.44-.07,2.88,.06,4.31,.06,.59,.55,1.13,.84,1.69h-4.07c1.38-.63,1.4-1.66,1.36-2.74-.04-1.09-.04-2.18-.02-3.27,.01-.95-.15-1.75-1.34-2.04Z"/>
  <path class="cls-1" d="M53.38,58.61c-.61,1.13-1.27,2.25-1.83,3.41-.88,1.83-1.69,3.68-2.53,5.53-.13,.03-.27,.06-.4,.09-.85-1.74-1.7-3.48-2.68-5.5-1.11,1.96-2.1,3.72-3.2,5.65-2-3.05-2.43-6.64-4.97-9.17h4.01c-1.19,.72-.77,1.45-.46,2.17,.61,1.39,1.23,2.78,1.98,4.47,.78-1.45,1.46-2.59,2.01-3.79,.37-.81-.41-1.97-1.92-2.8h4.54c-.35,.3-.86,.54-.97,.9-.1,.35,.17,.83,.35,1.23,.59,1.31,1.21,2.61,2,4.29,.84-1.93,1.59-3.56,2.21-5.23,.12-.32-.26-.82-.41-1.23h2.25Z"/>
  <path class="cls-1" d="M171.32,3.21c2.26,.14,3.91,.54,5.36,1.64,3.39,2.56,3.5,6.99,.23,9.69-2.91,2.4-7.74,2.38-10.64-.06-1.82-1.53-2.66-3.48-2.21-5.81,.49-2.5,2.18-4.07,4.53-4.89,1.02-.35,2.12-.45,2.72-.57Zm7,6.54c-.35-.9-.56-1.9-1.08-2.69-2.2-3.34-7.27-3.83-10.36-1.07-2.4,2.15-2.35,5.59,.12,7.69,2.49,2.11,6.42,2.21,8.98,.21,1.32-1.03,2.15-2.32,2.34-4.15Z"/>
  <path class="cls-1" d="M95.69,66.33c.53-.19,.92-.32,1.31-.46-.94,1.85-2.43,2.1-3.74,.52-.36,.18-.72,.44-1.13,.57-.7,.22-1.42,.51-2.13,.52-1.02,.02-1.81-.52-2.11-1.55-.3-1.04,.05-1.94,.93-2.44,1.11-.63,2.32-1.12,3.52-1.57,.79-.3,1.29-.63,1.11-1.59-.2-1.02-.84-1.41-1.78-1.42-.82,0-1.47,.26-1.58,1.21-.02,.2,.03,.5-.08,.57-.36,.25-.78,.41-1.17,.61-.18-.4-.61-.9-.5-1.18,.2-.5,.67-.99,1.15-1.26,.54-.3,1.22-.46,1.84-.48,2.82-.12,4.26,.1,4.12,3.78-.05,1.34-.25,2.74,.24,4.19Zm-2.22-4.29c-1.19,.57-2.13,.95-3.01,1.46-.72,.42-.95,1.15-.63,1.94,.3,.74,.95,1.05,1.69,.93,.82-.14,1.77-.33,1.92-1.34,.13-.86,.03-1.76,.03-2.98Z"/>
  <path class="cls-1" d="M11.93,66.28c.59-.16,.99-.27,1.42-.39-1.09,1.86-2.46,2.07-3.72,.47-.4,.21-.8,.5-1.26,.63-.75,.22-1.52,.45-2.29,.45-.93,0-1.58-.59-1.85-1.48-.29-.94-.11-1.88,.76-2.37,1.2-.67,2.5-1.19,3.78-1.71,.71-.29,1.24-.54,1.03-1.48-.22-.97-.75-1.5-1.73-1.52-.79-.02-1.51,.15-1.67,1.11-.04,.24,.03,.62-.1,.71-.36,.24-.82,.51-1.22,.48-.19-.01-.57-.88-.47-1,.57-.63,1.19-1.42,1.94-1.64,1.01-.29,2.17-.22,3.25-.1,1.2,.13,1.82,.9,1.88,2.14,.07,1.34,.02,2.68,.05,4.02,.01,.52,.12,1.03,.2,1.66Zm-2.08-4.26c-1.21,.54-2.13,.87-2.96,1.35-.67,.39-1.2,1.1-.78,1.86,.29,.51,1.07,1.14,1.53,1.07,.78-.13,1.8-.6,2.12-1.23,.37-.73,.09-1.78,.09-3.05Z"/>
  <path class="cls-1" d="M73.86,61.85h-6.74c-.25,1.95,.49,3.23,2.13,3.93,1.64,.7,2.87,.27,4.68-1.81-.1,.55-.09,.86-.21,1.11-.96,2-2.88,2.9-5.08,2.4-2.02-.46-3.2-2.03-3.35-4.18-.26-3.73,2.95-5.71,6.41-4.75,1.42,.39,2.16,1.56,2.16,3.31Zm-2.36-.59c-.13-1.56-.81-2.27-2.06-2.29-1.37-.02-2.2,.74-2.39,2.29h4.45Z"/>
  <path class="cls-1" d="M161.44,61.89h-6.78c-.22,1.89,.55,3.19,2.19,3.9,1.61,.69,2.86,.26,4.48-1.56,.33,1.66-2.1,3.47-3.95,3.4-2.7-.09-4.54-1.91-4.5-4.68,.04-2.9,1.82-4.67,4.69-4.62,2.57,.04,3.96,1.26,3.89,3.57Zm-6.83-.63h4.51c-.13-1.58-.78-2.27-2.06-2.29-1.38-.02-2.23,.75-2.45,2.29Z"/>
  <path class="cls-1" d="M63.72,61.9h-7.11c.05,1.95,.79,3.2,2.36,3.88,1.97,.86,3.4-.04,4.66-1.86-.45,2.58-2.28,3.91-4.66,3.67-2.53-.26-3.94-2.03-3.89-4.88,.04-2.57,1.69-4.25,4.29-4.38,2.61-.13,4.01,.91,4.36,3.57Zm-2.53-.63c0-1.52-.73-2.3-2.08-2.31-1.35-.01-2.25,.87-2.29,2.31h4.36Z"/>
  <path class="cls-1" d="M146.57,54.61c.97-.33,1.93-.65,3.09-1.04,.06,.59,.14,1.01,.14,1.43,.01,3.32,0,6.64,0,9.96,0,.96,.02,1.91,1.17,2.34h-3.69c.21-.77,.59-1.56,.61-2.35,.07-2.82,.01-5.65,.03-8.47,0-.95-.1-1.74-1.57-1.44,.07-.14,.15-.28,.22-.42Z"/>
  <path class="cls-1" d="M98.52,67.44v-2.76c.07-.02,.13-.04,.2-.06,.19,.32,.37,.65,.58,.95,.75,1.06,1.79,1.62,3.08,1.4,.45-.08,1.1-.53,1.18-.91,.1-.46-.16-1.24-.53-1.51-.83-.6-1.84-.97-2.77-1.43-1.55-.77-2.13-1.67-1.84-2.86,.29-1.2,1.42-1.95,3.02-1.93,.98,.02,1.96,.14,3.07,.22v2.77c-.39-.65-.53-1.06-.81-1.3-.51-.43-1.06-.9-1.67-1.1-.83-.26-1.8-.2-2.19,.75-.43,1.06,.48,1.5,1.24,1.87,.85,.41,1.75,.71,2.6,1.14,1.34,.68,1.89,1.55,1.67,2.69-.24,1.23-1.16,1.91-2.3,2.02-1.46,.15-2.94,.04-4.54,.04Z"/>
  <path class="cls-1" d="M20.64,61.01c-.17-.28-.34-.56-.52-.84-.67-1.06-1.58-1.54-2.76-1.26-.47,.11-1.15,.52-1.2,.86-.06,.46,.27,1.17,.67,1.45,.72,.51,1.61,.76,2.41,1.14,.49,.23,1.01,.44,1.44,.76,1.42,1.06,1.39,2.97-.18,3.8-.83,.44-1.88,.55-2.84,.6-.92,.05-1.85-.19-2.88-.31v-2.93c.36,.58,.55,.88,.73,1.18,.66,1.06,1.62,1.58,2.86,1.56,.76,0,1.38-.3,1.58-1.1,.19-.74-.2-1.25-.83-1.58-.84-.43-1.7-.82-2.54-1.24-1.6-.78-2.13-1.58-1.86-2.83,.26-1.2,1.38-1.98,2.97-1.97,1.03,0,2.06,.13,3.19,.21v2.36c-.09,.03-.17,.07-.26,.1Z"/>
  <path class="cls-1" d="M119.38,58.59v2.33c-.07,.03-.15,.06-.22,.09-.22-.34-.42-.69-.65-1.03-.67-.99-1.92-1.4-3.02-1.02-1.1,.39-1.33,1.27-.44,2.01,.48,.4,1.11,.65,1.68,.94,.8,.4,1.67,.69,2.4,1.19,1.57,1.05,1.52,3-.17,3.84-.88,.44-1.99,.51-3,.57-.83,.04-1.67-.18-2.63-.31v-2.82c.3,.46,.48,.75,.66,1.03,.76,1.19,2.16,1.92,3.28,1.55,.49-.17,1.07-.64,1.21-1.1,.11-.36-.27-1.08-.64-1.33-.86-.58-1.84-.97-2.78-1.42-1.46-.71-2.05-1.6-1.81-2.73,.27-1.26,1.34-2.06,2.92-2.05,1.03,0,2.07,.16,3.22,.26Z"/>
  <path class="cls-1" d="M35.67,58.53v2.66c-.38-.56-.59-.84-.77-1.13-.62-1.03-1.6-1.37-2.69-1.16-.48,.09-1.09,.59-1.24,1.04-.11,.34,.33,1,.69,1.31,.44,.37,1.06,.53,1.6,.78,.68,.31,1.39,.57,2.02,.96,1.79,1.12,1.73,3.22-.17,4.11-.81,.38-1.82,.44-2.74,.46-.88,.02-1.76-.2-2.71-.33v-2.53c.07-.02,.13-.03,.2-.05,.2,.33,.32,.75,.6,.96,.74,.53,1.5,1.12,2.34,1.4,.78,.26,1.63-.05,1.97-.92,.35-.89-.29-1.41-.95-1.78-.86-.48-1.79-.85-2.68-1.29-1.29-.64-1.8-1.47-1.61-2.55,.2-1.11,1.11-1.98,2.42-2.05,1.18-.07,2.37,.08,3.71,.14Z"/>
  <path class="cls-1" d="M78.44,59.35c0,1.97-.04,3.9,.02,5.82,.03,.98,.73,1.36,1.67,1.01,.25-.09,.46-.28,.82-.49-.74,1.46-1.63,1.96-2.86,1.71-1-.2-1.44-.79-1.5-2.25-.06-1.49-.05-2.98-.02-4.47,.02-.93-.06-1.72-1.38-1.5,1.09-1.16,2.07-2.21,3.16-3.37,.06,.89,.11,1.7,.16,2.58,.74,.1,1.46,.2,2.17,.29,.01,.12,.03,.23,.04,.35-.71,.1-1.42,.2-2.28,.32Z"/>
  <path class="cls-1" d="M144.91,67.16c-.58,.12-.72,.17-.85,.18-1.19,0-2.38,0-3.67-.07,1.07-.55,1.16-1.47,1.13-2.47-.04-1.19-.04-2.38-.02-3.57,.02-.99-.14-1.82-1.47-1.97,1-.33,2-.66,3.24-1.07,.04,.85,.09,1.47,.1,2.08,.01,1.54,0,3.07,0,4.61,0,.94-.07,1.92,1.53,2.29Z"/>
  <path class="cls-1" d="M144.01,54.64c-.72,.44-1.12,.88-1.46,.84-.43-.06-.81-.5-1.21-.78,.36-.34,.7-.91,1.1-.97,.37-.05,.82,.44,1.57,.91Z"/>
  <path class="cls-1" d="M173.33,10.32c.75,1.02,1.42,1.93,2.14,2.89-1.24,.4-1.97,.03-2.65-.88-.64-.85-1.11-2.1-2.76-1.77v2.73c-.61,.03-1.07,.05-1.62,.08V6.39c1.58,0,3.05-.02,4.52,0,1,.02,1.74,.51,1.95,1.51,.21,1.01-.28,1.71-1.19,2.13-.12,.06-.23,.16-.38,.27Zm-3.24-1.12c.87,0,1.65,.07,2.41-.04,.26-.04,.59-.5,.65-.81,.04-.2-.34-.64-.58-.69-.79-.15-1.6-.16-2.55-.23,.03,.72,.05,1.18,.08,1.77Z"/>
</svg>