<?xml version="1.0" encoding="UTF-8"?>
<svg id="_8-logos" data-name="8-logos" xmlns="http://www.w3.org/2000/svg" viewBox="0 0 162.17 64.5">
  <defs>
    <style>
      .cls-1 {
        fill: #c9c9c9;
      }
    </style>
  </defs>
  <path class="cls-1" d="M44.28,37.5c-2.22,2.18-5.58,2.44-9.3,1.68,.16,4.75-2.11,8.22-5.22,11.22-4.36,4.21-11.51,5.54-17.02,2.9-5.68-2.72-8.27-7.6-8.37-13.72-.13-7.74-.03-15.47-.03-23.21,0-.75,0-1.5,0-2.4H14.8c0,.79,0,1.53,0,2.27,0,7.53-.01,15.06,0,22.59,0,2.49,1.26,4.08,3.57,4.69,3.23,.84,5.88-1.14,5.89-4.47,.02-7.6,0-15.2,0-22.8,0-.74,0-1.48,0-2.33h10.78c0,4.18,.04,8.24-.02,12.3-.02,1.45,.57,2.21,1.95,2.42,1.6,.24,2.68-.65,2.69-2.29,.03-4.07,0-8.14,0-12.38h10.6c0,3.84,0,7.62,0,11.39,0,.62-.17,1.48,.16,1.8,.72,.69,1.68,1.48,2.59,1.54,1.29,.08,2.07-.89,2.06-2.32-.02-3.39,0-6.77,0-10.16,0-.74,0-1.48,0-2.33h10.6c0,3.87,0,7.65,0,11.42,0,3.04,.48,3.53,3.44,3.53,1.94,0,3.89,.01,5.83,0,2.54-.02,3.07-.53,3.08-3.01,.01-3.92,0-7.84,0-11.91h10.15c.05,.71,.15,1.43,.15,2.15,.01,4.08,.02,8.15,0,12.23-.02,6.2-4.94,11.21-11.16,11.31-3.05,.05-6.11,.05-9.16,0-2.75-.05-5.4-.52-7.09-2.06-3.01,.75-5.64,1.91-8.27,1.9-2.64,0-5.27-1.18-8.38-1.96Z"/>
  <path class="cls-1" d="M137.9,39.64c.51,5.2-.07,9.77-4.21,13.08-1.8,1.44-3.86,2.09-6.4,1.75v-14.73h-15.07c-.07-.89-.16-1.54-.16-2.19-.01-4.01-.03-8.01,0-12.02,.05-6.32,4.61-11.25,10.92-11.61,2.12-.12,4.32-.01,6.39,.44,4.76,1.04,7.88,4.78,8.37,9.63,.16,1.64,.26,3.29,.41,5.19h19.14c-1.13,3.45-2.1,6.59-3.25,9.67-.16,.43-1.22,.74-1.87,.75-3.88,.07-7.77,.03-11.65,.03-.75,0-1.5,0-2.6,0Zm-9.29-10.49c-.46-2.18,.95-4.71-1.51-5.95-1.14-.58-3.13-.59-4.21,.04-2.31,1.34-.9,3.79-1.22,5.91h6.94Z"/>
  <path class="cls-1" d="M93.17,54.35c0-3.12-.01-6.27,.03-9.42,0-.25,.33-.68,.56-.72,2.04-.41,2.06-1.94,2.05-3.52-.07-8.08-.12-16.16-.18-24.24,0-.81,0-1.62,0-2.54h10.36v1.95c0,9.12,0,18.24,0,27.35,0,6.05-6.35,11.68-12.81,11.14Z"/>
  <path class="cls-1" d="M146.79,9.59c-2.14,3-4.18,3.88-6.74,3.01-1.96-.66-3.35-2.64-3.36-4.77,0-2.23,1.39-4.14,3.53-4.84,2.42-.79,4.42,.09,6.54,3.01,1.2-1.87,2.71-3.5,5.07-3.2,1.27,.16,2.7,.78,3.63,1.65,2.12,1.98,1.74,5.5-.53,7.31-2.55,2.04-5.85,1.2-8.14-2.19Z"/>
  <path class="cls-1" d="M71.95,47.82c1.89-2.9,3.9-3.9,6.44-3.19,2.02,.56,3.63,2.66,3.67,4.79,.04,2.26-1.45,4.26-3.69,4.96-2.4,.75-4.46-.25-6.43-3.14-1.83,2.8-3.92,3.85-6.29,3.18-2.22-.63-3.75-2.64-3.74-4.91,.01-2.22,1.49-4.23,3.55-4.84,2.59-.76,4.63,.22,6.5,3.15Z"/>
</svg>