<?xml version="1.0" encoding="UTF-8"?>
<svg id="_8-logos" data-name="8-logos" xmlns="http://www.w3.org/2000/svg" viewBox="0 0 166.24 58.63">
  <defs>
    <style>
      .cls-1 {
        fill: #c9c9c9;
      }
    </style>
  </defs>
  <path class="cls-1" d="M15.59,24.58c0,.51,0,1.01,0,1.52,.06,7.51,.14,15.02,.14,22.53,0,.85-.28,1.85-.78,2.5-.81,1.06-5.66,1.06-6.52,.02-.49-.6-.78-1.55-.8-2.35-.08-3.99-.04-7.99-.04-11.99,0-7.51,0-15.02,0-22.53,0-2.67,.75-3.41,3.44-3.42,1.2,0,2.4,.03,3.6,0,2.25-.07,3.81,.91,4.89,2.9,4.19,7.74,8.44,15.45,12.67,23.17,.26,.48,.54,.96,.82,1.44,.12-.03,.25-.05,.37-.08,0-.5,0-1,0-1.5-.05-7.32-.1-14.63-.15-21.95-.01-2.49,.79-3.31,3.26-3.31,20.18,0,40.36,0,60.54,0,2.16,0,2.63,.48,2.63,2.63,0,.48,.02,.96-.01,1.44-.09,1.18-.65,1.73-1.82,1.8-.48,.03-.96,0-1.44,0-17.87,0-35.75,0-53.62,0-1.83,0-1.83,0-1.83,1.79,0,9.63,0,19.26,0,28.89,0,.48,.02,.96-.02,1.44-.11,1.39-.91,2.21-2.31,2.26-1.54,.06-3.07,0-4.61,.02-1.86,.03-3.21-.73-4.12-2.38-3.59-6.48-7.2-12.95-10.8-19.42-1.02-1.84-2.04-3.68-3.06-5.52-.14,.03-.28,.06-.42,.08Z"/>
  <path class="cls-1" d="M139.39,39.07c.25,3.27,2.07,5.66,4.78,6.54,2.82,.92,6.14,.11,7.87-2.11,.87-1.12,1.82-1.59,3.19-1.47,1,.08,2.02,0,3.03,.02,1.51,.03,2.08,.76,1.65,2.24-.53,1.8-1.57,3.29-2.99,4.51-2.38,2.05-5.19,3.09-8.27,3.41-4.87,.51-9.28-.51-12.78-4.2-5.35-5.64-5.8-15.32-.96-21.4,3.31-4.16,7.79-5.69,12.92-5.22,8.36,.76,13.7,7.13,13.25,15.55-.07,1.34-.7,2.02-2.04,2.14-.43,.04-.86,.02-1.3,.02-5.52,0-11.05,0-16.57,0-.56,0-1.12,0-1.78,0Zm13.72-5.71c-.05-3.36-3.22-6.11-6.86-6.07-3.56,.03-6.66,2.81-6.65,6.07h13.51Z"/>
  <path class="cls-1" d="M51.72,39.07c.19,3.16,1.97,5.54,4.64,6.48,2.84,.99,6.14,.29,7.9-1.94,.99-1.25,2.07-1.72,3.58-1.58,.91,.08,1.82,0,2.74,.02,1.54,.03,2.08,.74,1.64,2.23-.59,2.01-1.78,3.63-3.42,4.88-7.34,5.6-22.31,4.78-24.65-9.77-.94-5.84,.52-11.09,5.23-14.93,4.58-3.74,9.87-4.04,15.25-2.07,5.09,1.86,7.62,5.92,8.56,11.09,.17,.94,.26,1.91,.27,2.87,.03,1.99-.68,2.72-2.66,2.72-5.76,.02-11.53,0-17.29,0-.56,0-1.12,0-1.79,0Zm13.89-5.72c-.36-3.58-3.65-6.25-7.3-6.06-3.49,.18-6.43,2.92-6.38,6.06h13.68Z"/>
  <path class="cls-1" d="M88.54,52.28c-4.25,.05-7.83-.83-10.91-3.27-1.35-1.07-2.36-2.39-2.74-4.12-.46-2.1,.13-2.84,2.27-2.85,.53,0,1.06,.04,1.58,0,1.68-.14,3.08,.05,3.88,1.91,.29,.69,1.23,1.21,1.99,1.56,2.1,.96,4.29,.88,6.48,.31,.41-.11,.81-.32,1.15-.57,1.68-1.21,1.54-3.33-.36-4.14-1.4-.6-2.91-.98-4.39-1.39-1.3-.36-2.64-.53-3.92-.94-1.41-.45-2.84-.93-4.12-1.65-5.65-3.17-4.85-10.39-.54-13.38,2.12-1.47,4.5-2.13,7.02-2.36,3.88-.35,7.58,.22,10.89,2.42,1.56,1.03,2.77,2.38,3.27,4.25,.52,1.92,0,2.61-1.95,2.62-.48,0-.96-.04-1.44,0-1.62,.15-2.81-.15-3.86-1.72-1.46-2.18-6.34-2.65-8.5-1.14-1.67,1.17-1.56,3.35,.35,4.1,1.91,.74,3.95,1.18,5.93,1.75,1.66,.48,3.37,.83,4.97,1.46,3.33,1.3,5.36,3.72,5.49,7.4,.13,3.7-1.63,6.35-4.87,8.02-2.53,1.3-5.25,1.83-7.69,1.74Z"/>
  <path class="cls-1" d="M104.62,22.17c0-.85,0-1.75,0-2.64,0-1.97-.02-3.94,.01-5.92,.03-1.72,.76-2.43,2.48-2.47,.86-.02,1.73-.02,2.59,0,1.71,.04,2.43,.74,2.45,2.49,.03,2.45,.05,4.91,0,7.36-.02,1.05,.29,1.49,1.39,1.42,1.29-.08,2.59-.02,3.89-.01,1.04,0,1.62,.51,1.63,1.58,.03,3.52,.33,3.98-3.58,3.84-1-.03-2,0-3.16,0-.05,.56-.13,1.02-.13,1.48,0,3.85,.04,7.7-.02,11.54-.04,3.01,1.61,5.08,4.74,5.13,1.66,.02,2.04,.55,2.08,2.25,.07,3.39-.12,3.59-3.52,3.57-1.05,0-2.13,.03-3.16-.14-4.53-.75-7.55-4.25-7.63-8.94-.08-4.33-.02-8.66-.03-12.99,0-1.77,0-1.79-1.72-1.91-1.03-.08-1.58-.59-1.66-1.62,0-.05,0-.1,0-.14q-.21-3.19,3.39-3.88Z"/>
  <path class="cls-1" d="M128.88,31.48c0,5.77,0,11.55,0,17.32,0,2.3-.69,2.98-3.02,2.99-.86,0-1.73,.03-2.59-.01-1.37-.07-2.08-.79-2.18-2.18-.02-.29-.01-.58-.01-.87-.06-11.45-.11-22.91-.17-34.36-.01-2.57,.66-3.23,3.24-3.24,.67,0,1.34,0,2.02,0,1.94,.04,2.71,.79,2.71,2.73,.01,5.87,0,11.74,0,17.61Z"/>
  <path class="cls-1" d="M146.47,17.26c-3.65,0-7.3,0-10.95,0-1.69,0-1.96-.23-2.04-1.52-.12-2.22,.12-2.62,1.89-2.8,4.82-.5,9.64-.98,14.46-1.47,2.63-.27,5.25-.52,7.88-.8,1.84-.19,2.55,.42,2.59,2.31,0,.48,0,.96,0,1.44,0,2.38-.46,2.83-2.9,2.83-1.63,0-3.26,0-4.9,0-2.02,0-4.03,0-6.05,0Z"/>
</svg>