<?xml version="1.0" encoding="UTF-8"?>
<svg id="Layer_1" data-name="Layer 1" xmlns="http://www.w3.org/2000/svg" viewBox="0 0 85.25 85.25">
  <defs>
    <style>
      .cls-1 {
        fill: #e3b038;
      }

      .cls-2 {
        fill: none;
        stroke: #fff;
        stroke-linecap: round;
        stroke-miterlimit: 10;
        stroke-width: 2.6px;
      }
    </style>
  </defs>
  <rect class="cls-1" x="0" y="0" width="85.25" height="85.25" rx="42.63" ry="42.63"/>
  <path class="cls-2" d="M19.76,33.59c0,.96,10.27,1.74,22.93,1.74s22.93-.78,22.93-1.74-10.27-1.74-22.93-1.74-22.93,.78-22.93,1.74Z"/>
  <path class="cls-2" d="M19.76,33.59h-.3c-2.25,0-2.04,2.36-2.04,2.82v3.76s2.56,2.45,25.3,2.45"/>
  <path class="cls-2" d="M65.59,33.59h.3c2.04,0,2.04,2.36,2.04,2.82v3.76s-2.46,2.45-25.2,2.45"/>
  <path class="cls-2" d="M35.07,36.12v.94c0,.84,.68,1.52,1.52,1.52h12.1c.84,0,1.52-.68,1.52-1.52v-.94"/>
  <path class="cls-2" d="M20.26,41.26l2.82,25.23c.1,.92,.57,1.78,1.33,2.33,1.87,1.34,6.55,3.14,18.22,3.14"/>
  <path class="cls-2" d="M65.15,41.26l-2.82,25.23c-.1,.92-.57,1.78-1.33,2.33-1.87,1.34-6.55,3.14-18.22,3.14"/>
  <path class="cls-2" d="M17.45,36.19s.06-21.54,25.69-21.54,24.71,20.51,24.71,20.51"/>
</svg>